<?xml version="1.0" encoding="utf-8"?>
<!-- Generator: Adobe Illustrator 28.1.0, SVG Export Plug-In . SVG Version: 6.00 Build 0)  -->
<svg version="1.1" xmlns="http://www.w3.org/2000/svg" xmlns:xlink="http://www.w3.org/1999/xlink" x="0px" y="0px"
	 viewBox="0 0 128 128" style="enable-background:new 0 0 128 128;" xml:space="preserve">
<style type="text/css">
	.st0{fill:#9B1B1F;}
	.st1{fill:#DCDDDE;}
	.st2{fill:#929497;}
	.st3{fill:#6C6E70;}
	.st4{fill:#3F3F41;}
	.st5{fill:none;stroke:#000000;stroke-miterlimit:10;}
</style>
<g id="Layer_3">
	<rect x="-0.22" class="st0" width="128.22" height="128.22"/>
</g>
<g id="Layer_2">
	<g>
		<path class="st1" d="M70.36,7.59l7.51,110.68c-1.1,1.6-3.32,2.9-5.97,2.93c-2.73,0.03-5.38-1.38-6.51-3.03
			c0.16-37.06,0.47-73.51,0.63-110.57c0.07-0.07,0.77-0.73,2.04-0.77C69.49,6.78,70.31,7.55,70.36,7.59z"/>
		<path class="st2" d="M65.85,7.63l-0.5,105.05h3.57L66.54,7.22c-0.1,0.05-0.39,0.19-0.44,0.22C65.99,7.51,65.92,7.57,65.85,7.63z"
			/>
		<path class="st3" d="M76.68,98.71c-0.45,0.37-1.08,0.84-1.91,1.33c-1.18,0.7-2.22,1.12-2.92,1.4c-1.04,0.42-2.22,0.88-3.93,1.23
			c-1.04,0.21-1.93,0.31-2.55,0.37v15.05c0.6,1.87,3.21,3.24,6.22,3.27c3.08,0.03,5.81-1.35,6.43-3.27
			C77.56,111.63,77.12,105.17,76.68,98.71z"/>
		<path class="st4" d="M65.36,103.04c0.3-0.03,0.69-0.06,1.12-0.12c0.78-0.11,1.39-0.23,1.71-0.3c0.16-0.04,0.91-0.2,1.88-0.51
			c0.93-0.3,1.59-0.58,2.1-0.79c0.7-0.3,1.5-0.64,2.44-1.18c0.58-0.33,1.31-0.8,2.06-1.42c0.02,0.29,0.04,0.58,0.06,0.87
			c-0.11,0.12-0.28,0.27-0.49,0.45c-0.26,0.22-0.5,0.38-0.73,0.53c-0.64,0.42-0.96,0.64-1.41,0.88c-0.67,0.36-1.23,0.57-1.88,0.83
			c-0.38,0.15-0.91,0.35-1.65,0.57c-0.59,0.18-1.02,0.27-1.87,0.47c-0.75,0.17-1.21,0.27-1.85,0.38c-0.6,0.1-1.12,0.16-1.49,0.19
			C65.36,103.59,65.36,103.32,65.36,103.04z"/>
	</g>
	<ellipse cx="67.78" cy="45.31" rx="1.14" ry="3.21"/>
	<ellipse cx="70.91" cy="45.31" rx="1.14" ry="3.21"/>
	<path class="st5" d="M67.11,55.33c0.29,0.05,0.97,0.07,1.22,0.04c0.76-0.11,1.09-0.22,1.91-0.47c0.6-0.18,0.96-0.5,1.05-0.56
		c0.39-0.28,0.66-0.58,0.84-0.8"/>
	<g>
		<path class="st1" d="M54.22,7.61L46.7,118.29c1.1,1.6,3.32,2.9,5.97,2.93c2.73,0.03,5.38-1.38,6.51-3.03
			c-0.16-37.06-0.47-73.51-0.63-110.57c-0.07-0.07-0.77-0.73-2.04-0.77C55.08,6.8,54.26,7.57,54.22,7.61z"/>
		<path class="st2" d="M58.72,7.65l0.5,105.05h-3.57L58.03,7.24c0.1,0.05,0.39,0.19,0.44,0.22C58.58,7.53,58.65,7.59,58.72,7.65z"/>
		<path class="st3" d="M47.89,98.73c0.45,0.37,1.08,0.84,1.91,1.33c1.18,0.7,2.22,1.12,2.92,1.4c1.04,0.42,2.22,0.88,3.93,1.23
			c1.04,0.21,1.93,0.31,2.55,0.37v15.05c-0.6,1.87-3.21,3.24-6.22,3.27c-3.08,0.03-5.81-1.35-6.43-3.27
			C47.01,111.65,47.45,105.19,47.89,98.73z"/>
		<path class="st4" d="M59.21,103.06c-0.3-0.03-0.69-0.06-1.12-0.12c-0.78-0.11-1.39-0.23-1.71-0.3c-0.16-0.04-0.91-0.2-1.88-0.51
			c-0.93-0.3-1.59-0.58-2.1-0.79c-0.7-0.3-1.5-0.64-2.44-1.18c-0.58-0.33-1.31-0.8-2.06-1.42c-0.02,0.29-0.04,0.58-0.06,0.87
			c0.11,0.12,0.28,0.27,0.49,0.45c0.26,0.22,0.5,0.38,0.73,0.53c0.64,0.42,0.96,0.64,1.41,0.88c0.67,0.36,1.23,0.57,1.88,0.83
			c0.38,0.15,0.91,0.35,1.65,0.57c0.59,0.18,1.02,0.27,1.87,0.47c0.75,0.17,1.21,0.27,1.85,0.38c0.6,0.1,1.12,0.16,1.49,0.19
			C59.21,103.61,59.21,103.34,59.21,103.06z"/>
	</g>
	<ellipse cx="56.79" cy="45.33" rx="1.14" ry="3.21"/>
	<ellipse cx="53.67" cy="45.33" rx="1.14" ry="3.21"/>
	<path class="st5" d="M57.46,55.35c-0.29,0.05-0.97,0.07-1.22,0.04c-0.76-0.11-1.09-0.22-1.91-0.47c-0.6-0.18-0.96-0.5-1.05-0.56
		c-0.39-0.28-0.66-0.58-0.84-0.8"/>
</g>
</svg>
