<?xml version="1.0" encoding="utf-8"?>
<!-- Generator: Adobe Illustrator 28.1.0, SVG Export Plug-In . SVG Version: 6.00 Build 0)  -->
<svg version="1.1" xmlns="http://www.w3.org/2000/svg" xmlns:xlink="http://www.w3.org/1999/xlink" x="0px" y="0px"
	 viewBox="0 0 128 128" style="enable-background:new 0 0 128 128;" xml:space="preserve">
<style type="text/css">
	.st0{fill:#FDBC5A;}
	.st1{fill:#D8D9DA;stroke:#939598;stroke-width:0.5;stroke-miterlimit:10;}
	.st2{fill:#92CB7C;stroke:#939598;stroke-width:0.5;stroke-miterlimit:10;}
	.st3{fill:#CDCFD0;}
	.st4{fill:#E81B3E;stroke:#000000;stroke-width:0.5;stroke-miterlimit:10;}
	.st5{fill:#E81B3E;stroke:#939598;stroke-width:0.5;stroke-miterlimit:10;}
	.st6{fill:#9C0724;stroke:#939598;stroke-width:0.5;stroke-miterlimit:10;}
	.st7{fill:none;stroke:#939598;stroke-width:0.5;stroke-miterlimit:10;}
	.st8{fill:none;stroke:#000000;stroke-width:0.5;stroke-miterlimit:10;}
</style>
<g id="Layer_4">
	<rect class="st0" width="128" height="128"/>
</g>
<g id="red">
	<path class="st1" d="M49.2,46.22L66.34,25.7c1.82-1.56,3.74-1.92,4.61-1.18c0.17,0.15,0.46,0.47,0.55,1.18c0,31.61,0,63.21,0,94.82
		c0.57,0.99,1.64,1.58,2.75,1.51c1.57-0.09,2.36-1.42,2.42-1.51c0-31.83,0-63.66,0-95.5c-0.02-2.85-1.52-5.42-3.88-6.56
		c-3.11-1.5-7.29-0.3-9.44,3.1c-5.98,7.28-11.97,14.56-17.95,21.84c-0.29,0.96,0,2,0.74,2.65C46.97,46.76,48.23,46.84,49.2,46.22z"
		/>
	<path class="st2" d="M65.24,21.62c0.22,0.13,0.58,0.39,0.89,0.84c0.28,0.41,0.4,0.8,0.45,1.04"/>
	<path class="st2" d="M67.28,20.15c0.25,0.23,0.63,0.63,0.92,1.23c0.33,0.66,0.4,1.26,0.42,1.62"/>
	<path class="st2" d="M69.96,19.6c0.16,0.24,0.41,0.7,0.5,1.33c0.1,0.76-0.1,1.36-0.22,1.63"/>
	<path class="st2" d="M71.79,23c0.24-0.21,0.59-0.57,0.87-1.12c0.3-0.59,0.38-1.13,0.41-1.45"/>
	<path class="st2" d="M72.69,24.15c0.28-0.02,0.71-0.09,1.19-0.31c0.56-0.26,0.92-0.61,1.12-0.84"/>
	<path class="st2" d="M45.57,43.41c0.13,0.01,0.33,0.02,0.56,0.06c0.57,0.08,1.11,0.16,1.65,0.5c0.43,0.27,0.68,0.6,0.81,0.77
		c0.38,0.55,0.47,1.09,0.49,1.36"/>
	<path class="st3" d="M45.63,43.69C45.63,43.69,45.63,43.69,45.63,43.69C45.63,43.69,45.63,43.69,45.63,43.69
		c0,0,0.52,0.06,0.87,0.12c0.25,0.05,0.47,0.09,0.74,0.2c0.19,0.08,0.56,0.24,0.89,0.61c0.23,0.25,0.34,0.49,0.41,0.65
		c0.15,0.34,0.21,0.64,0.23,0.85c-0.11,0.05-0.26,0.11-0.45,0.15c-0.49,0.11-0.88,0.03-1.01,0c-0.44-0.1-0.73-0.3-0.82-0.36
		c-0.51-0.37-0.7-0.86-0.76-1.02c-0.15-0.39-0.14-0.72-0.14-0.79c0-0.14,0.02-0.27,0.04-0.35"/>
	<path class="st4" d="M91.89,6.95"/>
	<path class="st1" d="M91.89,120.75c0.4,0.81,1.34,1.32,2.33,1.28c0.92-0.03,1.74-0.53,2.11-1.28c0.14-37.93,0.27-75.86,0.41-113.8
		c-0.13-0.13-0.94-0.94-2.31-0.98c-1.5-0.05-2.43,0.86-2.54,0.98C91.89,44.88,91.89,82.82,91.89,120.75z"/>
	<path class="st5" d="M92.05,7.01c0.12,0.09,0.3,0.21,0.54,0.33c0.7,0.34,1.38,0.35,1.95,0.35c0.46,0,0.78,0,1.19-0.13
		c0.41-0.13,0.71-0.33,0.88-0.47"/>
	<path class="st3" d="M92.38,6.9c0.13-0.1,0.33-0.23,0.59-0.35c0.53-0.24,1.01-0.29,1.16-0.29c0.15-0.01,0.58-0.02,1.09,0.12
		c0.56,0.16,0.91,0.41,0.98,0.46c0.07,0.05,0.13,0.1,0.17,0.14c-0.1,0.06-0.24,0.14-0.42,0.22C95.56,7.37,95.23,7.41,95,7.44
		c-0.15,0.02-0.66,0.08-1.31-0.02c-0.27-0.04-0.55-0.09-0.87-0.24C92.62,7.08,92.48,6.98,92.38,6.9z"/>
</g>
<g id="Layer_2">
	<g id="Layer_1">
		<path class="st6" d="M92.96,31.24c0.24,0.1,0.71,0.28,1.34,0.28c0.64,0,1.13-0.18,1.36-0.28"/>
		<path class="st6" d="M92.96,32.73c0.24,0.1,0.71,0.28,1.34,0.28c0.64,0,1.13-0.18,1.36-0.28"/>
		<path class="st6" d="M92.96,34.32c0.24,0.1,0.71,0.28,1.34,0.28c0.64,0,1.13-0.18,1.36-0.28"/>
		<path class="st6" d="M92.96,35.78c0.24,0.1,0.71,0.28,1.34,0.28c0.64,0,1.13-0.18,1.36-0.28"/>
		<path class="st6" d="M92.96,37.36c0.24,0.1,0.71,0.28,1.34,0.28c0.64,0,1.13-0.18,1.36-0.28"/>
	</g>
</g>
<g id="Layer_5">
	<path class="st1" d="M31.18,16.6v104.05c0.05,0.07,1.18,1.56,2.99,1.37c1.4-0.15,2.17-1.2,2.29-1.37c0-34.68,0-69.37,0-104.05
		c-0.08-0.3-0.66-2.75,0.91-4.56c0.59-0.69,1.28-1.05,1.76-1.24c10.34,0,20.69,0,31.03,0c1.06-0.45,1.71-1.51,1.63-2.61
		c-0.07-0.97-0.71-1.83-1.63-2.22c-10.69,0-21.38,0-32.07,0c-0.73,0.15-3.37,0.78-5.28,3.26C30.34,12.41,31.06,16.06,31.18,16.6z"/>
	<path class="st7" d="M31.97,15.01c0.24,0.14,0.76,0.4,1.47,0.42c0.78,0.02,1.35-0.28,1.59-0.42"/>
	<path class="st7" d="M32.21,12.67c0.23,0.15,0.68,0.39,1.3,0.46c0.71,0.08,1.26-0.11,1.52-0.21"/>
	<path class="st7" d="M33.62,10.19c0.15,0.2,0.4,0.47,0.76,0.7c0.57,0.37,1.13,0.44,1.42,0.46"/>
	<path class="st7" d="M35.81,8.35C35.87,8.58,36,9,36.33,9.41c0.39,0.48,0.86,0.7,1.08,0.78"/>
	<path class="st7" d="M38.68,7.25c-0.08,0.22-0.18,0.57-0.17,1.01c0.01,0.62,0.24,1.08,0.37,1.31"/>
	<path class="st7" d="M70.05,6.06c-0.07,0.09-0.16,0.22-0.26,0.38c-0.09,0.16-0.35,0.63-0.47,1.29c-0.07,0.38-0.17,0.95,0.05,1.63
		c0.18,0.59,0.51,0.99,0.75,1.22"/>
	<path class="st3" d="M70.22,6.34L70.22,6.34c-0.13,0.22-0.31,0.55-0.45,0.98c-0.14,0.43-0.33,1.01-0.19,1.7
		c0.13,0.66,0.5,1.12,0.75,1.36c0.12-0.08,0.28-0.2,0.44-0.37c0.08-0.08,0.25-0.26,0.4-0.51c0.08-0.14,0.31-0.52,0.33-1.06
		c0.02-0.58-0.2-1-0.29-1.16c-0.27-0.5-0.66-0.77-0.85-0.89"/>
	<ellipse cx="50.36" cy="8.41" rx="0.78" ry="1.47"/>
	<ellipse cx="54.06" cy="8.41" rx="0.78" ry="1.47"/>
	<ellipse cx="72.93" cy="47.57" rx="0.78" ry="1.47"/>
	<ellipse cx="75.27" cy="47.57" rx="0.78" ry="1.47"/>
	<ellipse cx="93.06" cy="63.78" rx="0.78" ry="1.25"/>
	<ellipse cx="95.4" cy="63.78" rx="0.78" ry="1.25"/>
	<path d="M72.18,52.61c-0.03,0.26-0.12,1.19,0.48,1.99c0.18,0.23,0.6,0.8,1.3,0.84c0.81,0.05,1.36-0.63,1.51-0.81
		c0.66-0.81,0.52-1.8,0.49-2"/>
	<path class="st8" d="M92.84,68.61c0,0.55,0.11,1.13,0.87,1.33c0.25,0.07,0.86,0.16,1.37-0.06c0.43-0.19,0.61-0.7,0.65-1.22"/>
</g>
</svg>
