<?xml version="1.0" encoding="utf-8"?>
<!-- Generator: Adobe Illustrator 28.1.0, SVG Export Plug-In . SVG Version: 6.00 Build 0)  -->
<svg version="1.1" xmlns="http://www.w3.org/2000/svg" xmlns:xlink="http://www.w3.org/1999/xlink" x="0px" y="0px"
	 viewBox="0 0 128 128" style="enable-background:new 0 0 128 128;" xml:space="preserve">
<style type="text/css">
	.st0{fill:#9B1B1F;}
	.st1{fill:#F6B97A;}
	.st2{fill:#B8732E;}
	.st3{fill:#4E77BB;}
	.st4{fill:#355284;}
</style>
<g id="Layer_3">
	<rect x="-0.22" class="st0" width="128.22" height="128.22"/>
</g>
<g id="Layer_2">
	<g>
		<g>
			<path class="st1" d="M68.64,7.59l4.94,110.68c-0.72,1.6-2.18,2.9-3.93,2.93c-1.8,0.03-3.54-1.38-4.28-3.03
				c0.1-37.06,0.31-73.51,0.41-110.57c0.05-0.07,0.5-0.73,1.34-0.77C68.08,6.78,68.61,7.55,68.64,7.59z"/>
			<path class="st2" d="M65.68,7.63l-0.33,105.05h2.35L66.13,7.22c-0.07,0.05-0.26,0.19-0.29,0.22C65.77,7.51,65.73,7.57,65.68,7.63
				z"/>
			<path class="st3" d="M72.8,98.71c-0.3,0.37-0.71,0.84-1.26,1.33c-0.78,0.7-1.46,1.12-1.92,1.4c-0.69,0.42-1.46,0.88-2.59,1.23
				c-0.68,0.21-1.27,0.31-1.68,0.37v15.05c0.39,1.87,2.11,3.24,4.09,3.27c2.03,0.03,3.82-1.35,4.23-3.27
				C73.38,111.63,73.09,105.17,72.8,98.71z"/>
		</g>
		<path class="st4" d="M65.36,103.04c0.2-0.03,0.45-0.06,0.74-0.12c0.51-0.11,0.91-0.23,1.13-0.3c0.11-0.04,0.6-0.2,1.24-0.51
			c0.61-0.3,1.05-0.58,1.38-0.79c0.46-0.3,0.99-0.64,1.61-1.18c0.38-0.33,0.86-0.8,1.35-1.42c0.01,0.29,0.03,0.58,0.04,0.87
			c-0.08,0.12-0.18,0.27-0.32,0.45c-0.17,0.22-0.33,0.38-0.48,0.53c-0.42,0.42-0.63,0.64-0.93,0.88c-0.44,0.36-0.81,0.57-1.24,0.83
			c-0.25,0.15-0.6,0.35-1.08,0.57c-0.39,0.18-0.67,0.27-1.23,0.47c-0.49,0.17-0.8,0.27-1.22,0.38c-0.4,0.1-0.74,0.16-0.98,0.19
			C65.36,103.59,65.36,103.32,65.36,103.04z"/>
	</g>
	<g>
		<g>
			<path class="st1" d="M59.36,7.63l-4.94,110.68c0.72,1.6,2.18,2.9,3.93,2.93c1.8,0.03,3.54-1.38,4.28-3.03
				c-0.1-37.06-0.31-73.51-0.41-110.57c-0.05-0.07-0.5-0.73-1.34-0.77C59.92,6.82,59.39,7.59,59.36,7.63z"/>
			<path class="st2" d="M62.32,7.67l0.33,105.05H60.3L61.87,7.26c0.07,0.05,0.26,0.19,0.29,0.22C62.23,7.55,62.27,7.61,62.32,7.67z"
				/>
			<path class="st3" d="M55.2,98.75c0.3,0.37,0.71,0.84,1.26,1.33c0.78,0.7,1.46,1.12,1.92,1.4c0.69,0.42,1.46,0.88,2.59,1.23
				c0.68,0.21,1.27,0.31,1.68,0.37v15.05c-0.39,1.87-2.11,3.24-4.09,3.27c-2.03,0.03-3.82-1.35-4.23-3.27
				C54.62,111.67,54.91,105.21,55.2,98.75z"/>
		</g>
		<path class="st4" d="M62.64,103.09c-0.2-0.03-0.45-0.06-0.74-0.12c-0.51-0.11-0.91-0.23-1.13-0.3c-0.11-0.04-0.6-0.2-1.24-0.51
			c-0.61-0.3-1.05-0.58-1.38-0.79c-0.46-0.3-0.99-0.64-1.61-1.18c-0.38-0.33-0.86-0.8-1.35-1.42c-0.01,0.29-0.03,0.58-0.04,0.87
			c0.08,0.12,0.18,0.27,0.32,0.45c0.17,0.22,0.33,0.38,0.48,0.53c0.42,0.42,0.63,0.64,0.93,0.88c0.44,0.36,0.81,0.57,1.24,0.83
			c0.25,0.15,0.6,0.35,1.08,0.57c0.39,0.18,0.67,0.27,1.23,0.47c0.49,0.17,0.8,0.27,1.22,0.38c0.4,0.1,0.74,0.16,0.98,0.19
			C62.64,103.63,62.64,103.36,62.64,103.09z"/>
	</g>
</g>
</svg>
