<svg width="37" height="34" viewBox="0 0 37 34" fill="none" xmlns="http://www.w3.org/2000/svg">
<path d="M24.05 34V25.3565C24.05 23.9811 23.4653 22.662 22.4244 21.6894C21.3836 20.7168 19.972 20.1704 18.5 20.1704C17.028 20.1704 15.6164 20.7168 14.5756 21.6894C13.5347 22.662 12.95 23.9811 12.95 25.3565V34H3.7C2.7187 34 1.77759 33.6357 1.08371 32.9874C0.38982 32.339 1.71291e-10 31.4596 1.7129e-10 30.5426V11.7552C-6.14707e-06 11.1581 0.165447 10.5712 0.480247 10.0517C0.795048 9.53214 1.24847 9.09762 1.79635 8.79045L16.5963 0.492711C17.1714 0.170307 17.8294 0 18.5 0C19.1706 0 19.8286 0.170307 20.4037 0.492711L35.2037 8.79045C35.7515 9.09762 36.205 9.53214 36.5198 10.0517C36.8346 10.5712 37 11.1581 37 11.7552V30.5426C37 31.4596 36.6102 32.339 35.9163 32.9874C35.2224 33.6357 34.2813 34 33.3 34H24.05Z" fill="#9B0000"/>
</svg>
