<svg width="37" height="37" viewBox="0 0 37 37" fill="none" xmlns="http://www.w3.org/2000/svg">
<path d="M33.3 33.2375V12.7924L18.5 3.76249L3.7 12.7924V33.2375H11.1V28.0642C11.1 26.0684 11.8796 24.1545 13.2674 22.7433C14.6552 21.3321 16.5374 20.5393 18.5 20.5393C20.4626 20.5393 22.3448 21.3321 23.7326 22.7433C25.1204 24.1545 25.9 26.0684 25.9 28.0642V33.2375H33.3ZM22.2 37V28.0642C22.2 27.0663 21.8102 26.1093 21.1163 25.4037C20.4224 24.6981 19.4813 24.3017 18.5 24.3017C17.5187 24.3017 16.5776 24.6981 15.8837 25.4037C15.1898 26.1093 14.8 27.0663 14.8 28.0642V37H3.7C2.7187 37 1.77759 36.6036 1.0837 35.898C0.38982 35.1924 1.71291e-10 34.2354 1.7129e-10 33.2375V12.7924C-6.14707e-06 12.1427 0.165447 11.504 0.480247 10.9386C0.795047 10.3732 1.24847 9.90036 1.79635 9.56607L16.5963 0.536186C17.1714 0.185334 17.8294 0 18.5 0C19.1706 0 19.8286 0.185334 20.4037 0.536186L35.2036 9.56607C35.7515 9.90036 36.205 10.3732 36.5198 10.9386C36.8346 11.504 37 12.1427 37 12.7924V33.2375C37 34.2354 36.6102 35.1924 35.9163 35.898C35.2224 36.6036 34.2813 37 33.3 37H22.2Z" fill="#9B0000"/>
</svg>
