<svg width="28" height="37" viewBox="0 0 28 37" fill="none" xmlns="http://www.w3.org/2000/svg">
<path d="M6 0H22C23.5913 0 25.1174 0.572712 26.2426 1.59215C27.3679 2.61158 28 3.99423 28 5.43593V32.6156C27.9998 33.3181 27.7742 34.0055 27.3507 34.594C26.9272 35.1825 26.324 35.6468 25.6145 35.9304C24.905 36.2139 24.1199 36.3046 23.3546 36.1912C22.5893 36.0778 21.8769 35.7654 21.304 35.2919L15.348 30.3687C14.9795 30.0642 14.4988 29.8953 14 29.8953C13.5012 29.8953 13.0205 30.0642 12.652 30.3687L6.696 35.2919C6.12315 35.7654 5.41072 36.0778 4.64543 36.1912C3.88014 36.3046 3.09497 36.2139 2.38549 35.9304C1.67601 35.6468 1.0728 35.1825 0.64928 34.594C0.225757 34.0055 0.000179379 33.3181 0 32.6156L0 5.43593C0 3.99423 0.632141 2.61158 1.75736 1.59215C2.88258 0.572712 4.4087 0 6 0Z" fill="#9B0000"/>
</svg>
