<svg width="29" height="36" viewBox="0 0 29 36" fill="none" xmlns="http://www.w3.org/2000/svg">
<path d="M6.00237 3.55467C5.47172 3.55467 4.96282 3.74192 4.58759 4.07524C4.21237 4.40855 4.00158 4.86062 4.00158 5.332V31.992L9.95993 27.163C11.0657 26.2668 12.5086 25.7699 14.0055 25.7699C15.5024 25.7699 16.9453 26.2668 18.0511 27.163L24.0095 31.992V5.332C24.0095 4.86062 23.7987 4.40855 23.4234 4.07524C23.0482 3.74192 22.5393 3.55467 22.0087 3.55467H6.00237ZM6.00237 0H22.0087C23.6006 0 25.1273 0.561763 26.253 1.56171C27.3787 2.56165 28.011 3.91787 28.011 5.332V31.992C28.0109 32.6811 27.7852 33.3553 27.3615 33.9326C26.9378 34.5099 26.3344 34.9653 25.6246 35.2434C24.9148 35.5216 24.1294 35.6105 23.3638 35.4993C22.5982 35.3881 21.8855 35.0816 21.3124 34.6171L15.3541 29.7881C14.9854 29.4894 14.5045 29.3237 14.0055 29.3237C13.5066 29.3237 13.0256 29.4894 12.657 29.7881L6.69864 34.6171C6.12556 35.0816 5.41286 35.3881 4.64726 35.4993C3.88167 35.6105 3.0962 35.5216 2.38643 35.2434C1.67667 34.9653 1.07323 34.5099 0.649536 33.9326C0.225846 33.3553 0.000179449 32.6811 0 31.992L0 5.332C0 3.91787 0.63239 2.56165 1.75805 1.56171C2.88371 0.561763 4.41044 0 6.00237 0Z" fill="#9B0000"/>
</svg>
