<?xml version="1.0" encoding="utf-8"?>
<!-- Generator: Adobe Illustrator 28.1.0, SVG Export Plug-In . SVG Version: 6.00 Build 0)  -->
<svg version="1.1" xmlns="http://www.w3.org/2000/svg" xmlns:xlink="http://www.w3.org/1999/xlink" x="0px" y="0px"
	 viewBox="0 0 128 128" style="enable-background:new 0 0 128 128;" xml:space="preserve">
<style type="text/css">
	.st0{fill:#FDBC5A;}
	.st1{fill:#F26D6B;stroke:#000000;stroke-width:0.5;stroke-miterlimit:10;}
	.st2{fill:none;stroke:#000000;stroke-width:0.25;stroke-miterlimit:10;}
	.st3{fill:none;stroke:#000000;stroke-width:0.5;stroke-miterlimit:10;}
	.st4{fill:#A24746;}
	.st5{fill:#92CB7C;stroke:#000000;stroke-width:0.5;stroke-miterlimit:10;}
	.st6{fill:#5A8450;}
	.st7{fill:#E81B3E;stroke:#000000;stroke-width:0.5;stroke-miterlimit:10;}
	.st8{fill:#9C0724;}
	.st9{fill:#9C0724;stroke:#000000;stroke-width:0.5;stroke-miterlimit:10;}
	.st10{fill:#7DCBF1;stroke:#000000;stroke-width:0.5;stroke-miterlimit:10;}
	.st11{fill:#497A93;}
	.st12{fill:#A98CC1;stroke:#000000;stroke-width:0.5;stroke-miterlimit:10;}
	.st13{fill:#78638A;}
</style>
<g id="Layer_4">
	<rect class="st0" width="128" height="127.61"/>
</g>
<g id="red">
	<path class="st1" d="M37.17,13.11L22.71,34.89c-0.13,0.67-0.24,1.46-0.26,2.36c-0.03,1.18,0.1,2.2,0.26,3.01
		c0,24.62,0,49.23,0,73.85c-0.06,0.09-0.76,1.05-2.01,1.05c-1.26,0-1.96-0.96-2.02-1.05c0-24.51,0-49.03,0-73.54
		c-0.12-1.11-0.17-2.47-0.04-4.02c0.13-1.45,0.39-2.7,0.67-3.72c4.74-7.28,9.48-14.56,14.23-21.85c1.12-0.41,2.3-0.19,3,0.57
		C37.07,12.13,37.16,12.83,37.17,13.11z"/>
	<path class="st2" d="M20.59,32.92c0.17,0.17,0.43,0.4,0.79,0.59c0.46,0.24,0.88,0.31,1.14,0.33"/>
	<path class="st2" d="M19.85,34.54c0.19,0.14,0.49,0.32,0.88,0.45c0.49,0.16,0.92,0.16,1.18,0.14"/>
	<path class="st2" d="M19.53,35.97c0.21,0.1,0.54,0.23,0.94,0.28c0.51,0.07,0.93-0.01,1.19-0.08"/>
	<path class="st2" d="M19.52,37.51c0.22,0.1,0.54,0.21,0.95,0.25c0.51,0.05,0.93-0.04,1.18-0.12"/>
	<path class="st2" d="M19.52,39.01c0.22,0.1,0.54,0.21,0.95,0.25c0.51,0.05,0.93-0.04,1.18-0.12"/>
	<path class="st2" d="M19.52,40.43c0.22,0.1,0.54,0.21,0.95,0.25c0.51,0.05,0.93-0.04,1.18-0.12"/>
	<path class="st3" d="M33.58,11.11c0.05,0.12,0.33,0.67,0.46,0.84c0.33,0.43,0.71,0.64,0.98,0.78c0.5,0.26,1.67,0.35,2.01,0.39"/>
	<path class="st4" d="M33.85,11.1c0.12-0.02,0.29-0.04,0.49-0.05c0.22-0.01,0.54-0.03,0.9,0.05c0.22,0.05,0.57,0.13,0.91,0.4
		c0.39,0.31,0.54,0.7,0.6,0.86c0.08,0.2,0.11,0.38,0.13,0.51c-0.09-0.01-0.23-0.03-0.39-0.05c-0.47-0.07-0.71-0.11-0.98-0.19
		c-0.21-0.07-0.45-0.14-0.72-0.32c-0.11-0.07-0.41-0.27-0.61-0.58c-0.06-0.1-0.16-0.27-0.23-0.42
		C33.91,11.22,33.88,11.15,33.85,11.1"/>
	<path class="st5" d="M70.76,55.85l13.69-16.52c1.45-1.25,2.99-1.55,3.69-0.95c0.14,0.12,0.37,0.38,0.44,0.95
		c0,25.44,0,50.87,0,76.31c0.45,0.79,1.31,1.27,2.2,1.22c1.26-0.07,1.89-1.14,1.93-1.22c0-25.62,0-51.24,0-76.86
		c-0.01-2.29-1.22-4.37-3.1-5.28c-2.49-1.21-5.83-0.24-7.55,2.49c-4.78,5.86-9.56,11.72-14.34,17.57c-0.23,0.78,0,1.61,0.59,2.13
		C68.98,56.28,69.98,56.35,70.76,55.85z"/>
	<path class="st5" d="M83.58,36.05c0.17,0.11,0.47,0.31,0.71,0.68c0.23,0.33,0.32,0.65,0.36,0.84"/>
	<path class="st5" d="M85.21,34.87c0.2,0.19,0.5,0.51,0.74,0.99c0.26,0.53,0.32,1.02,0.34,1.3"/>
	<path class="st5" d="M87.36,34.43c0.13,0.19,0.33,0.56,0.4,1.07c0.08,0.61-0.08,1.09-0.17,1.31"/>
	<path class="st5" d="M88.81,37.16c0.19-0.17,0.47-0.46,0.69-0.9c0.24-0.47,0.31-0.91,0.33-1.17"/>
	<path class="st5" d="M89.54,38.09c0.22-0.02,0.57-0.07,0.95-0.25c0.45-0.21,0.74-0.49,0.9-0.67"/>
	<path class="st5" d="M67.86,53.59c0.11,0.01,0.26,0.02,0.45,0.05c0.46,0.07,0.89,0.13,1.32,0.4c0.34,0.22,0.55,0.48,0.65,0.62
		c0.3,0.44,0.37,0.88,0.39,1.09"/>
	<path class="st6" d="M67.91,53.82C67.91,53.82,67.91,53.82,67.91,53.82C67.91,53.82,67.91,53.82,67.91,53.82c0,0,0.42,0.04,0.7,0.1
		c0.2,0.04,0.38,0.07,0.59,0.16c0.15,0.06,0.45,0.19,0.71,0.49c0.18,0.2,0.27,0.4,0.32,0.52c0.12,0.27,0.17,0.52,0.18,0.68
		c-0.09,0.04-0.21,0.09-0.36,0.12c-0.39,0.09-0.71,0.03-0.81,0c-0.35-0.08-0.58-0.24-0.65-0.29c-0.41-0.3-0.56-0.69-0.61-0.82
		c-0.12-0.32-0.12-0.58-0.11-0.64c0-0.12,0.02-0.21,0.03-0.28"/>
	<path class="st7" d="M104.88,11.58"/>
	<path class="st7" d="M104.88,116.28c0.32,0.74,1.07,1.21,1.86,1.18c0.73-0.03,1.39-0.49,1.69-1.18c0.11-34.9,0.22-69.8,0.33-104.69
		c-0.1-0.12-0.75-0.86-1.85-0.9c-1.2-0.04-1.94,0.8-2.03,0.9C104.88,46.48,104.88,81.38,104.88,116.28z"/>
	<path class="st7" d="M105.01,11.64c0.09,0.08,0.24,0.19,0.43,0.3c0.56,0.31,1.1,0.32,1.56,0.32c0.37,0,0.62,0,0.95-0.12
		c0.33-0.12,0.57-0.3,0.71-0.43"/>
	<path class="st8" d="M105.27,11.54c0.11-0.09,0.26-0.22,0.47-0.33c0.42-0.22,0.8-0.26,0.93-0.27c0.12-0.01,0.46-0.02,0.87,0.11
		c0.45,0.14,0.72,0.38,0.78,0.43c0.06,0.05,0.1,0.1,0.14,0.13c-0.08,0.06-0.19,0.13-0.33,0.2c-0.31,0.15-0.57,0.2-0.76,0.22
		c-0.12,0.02-0.53,0.07-1.04-0.02c-0.21-0.04-0.44-0.08-0.7-0.22C105.47,11.7,105.35,11.61,105.27,11.54z"/>
</g>
<g id="Layer_2">
	<g id="Layer_1">
		<path class="st9" d="M105.74,33.93c0.19,0.1,0.57,0.26,1.07,0.26c0.52,0,0.9-0.16,1.09-0.26"/>
		<path class="st9" d="M105.74,35.3c0.19,0.1,0.57,0.26,1.07,0.26c0.52,0,0.9-0.16,1.09-0.26"/>
		<path class="st9" d="M105.74,36.76c0.19,0.1,0.57,0.26,1.07,0.26c0.52,0,0.9-0.16,1.09-0.26"/>
		<path class="st9" d="M105.74,38.11c0.19,0.1,0.57,0.26,1.07,0.26c0.52,0,0.9-0.16,1.09-0.26"/>
		<path class="st9" d="M105.74,39.56c0.19,0.1,0.57,0.26,1.07,0.26c0.52,0,0.9-0.16,1.09-0.26"/>
	</g>
</g>
<g id="Layer_5">
	<path class="st10" d="M35.37,41.59v72.98c0.07,0.1,0.87,1.11,2.23,1.07c1.24-0.04,1.95-0.95,2.04-1.07c0-24.42,0-48.84,0-73.26
		c-0.17-1.41,0.84-2.55,1.85-2.61c1.08-0.06,2.28,1.09,2.12,2.61c0,5.79,0,11.57,0,17.36c0.05,0.06,0.72,0.98,1.88,0.92
		c1.02-0.05,1.58-0.82,1.65-0.92c0-5.99,0-11.98,0-17.98c0.12-3.35-2.4-6.12-5.37-6.37c-3.31-0.28-6.49,2.62-6.39,6.37
		C35.37,41,35.37,41.29,35.37,41.59z"/>
	<path class="st3" d="M37.17,38.24c0.16,0.01,0.52,0.04,0.89,0.28c0.43,0.28,0.61,0.66,0.67,0.81"/>
	<path class="st3" d="M38.3,36.99c0.19,0.06,0.51,0.19,0.82,0.46c0.33,0.29,0.5,0.61,0.58,0.79"/>
	<path class="st3" d="M40.36,36c0.13,0.13,0.33,0.38,0.47,0.74c0.14,0.37,0.15,0.69,0.14,0.87"/>
	<path class="st3" d="M42.86,36c0.05,0.12,0.2,0.54,0.04,1.02c-0.1,0.3-0.27,0.5-0.38,0.6"/>
	<path class="st3" d="M43.85,38.79c0.17-0.07,0.42-0.21,0.66-0.45c0.33-0.33,0.47-0.69,0.53-0.88"/>
	<path class="st3" d="M43.72,58.62c0.06-0.06,0.25-0.2,0.33-0.26c0.06-0.04,0.27-0.17,0.6-0.25c0.31-0.08,0.55-0.07,0.76-0.06
		c0.29,0.01,0.65,0.02,1.07,0.21c0.22,0.1,0.39,0.22,0.5,0.32"/>
	<path class="st11" d="M43.98,58.72L43.98,58.72c0.05-0.05,0.14-0.12,0.25-0.19c0.19-0.12,0.36-0.16,0.49-0.19
		c0.25-0.06,0.44-0.06,0.6-0.06c0.18,0,0.42,0,0.71,0.07c0.27,0.07,0.44,0.16,0.48,0.18c0.12,0.06,0.2,0.13,0.27,0.18
		c-0.06,0.07-0.14,0.14-0.24,0.22c-0.11,0.09-0.22,0.15-0.28,0.19c-0.09,0.05-0.27,0.15-0.52,0.19c-0.06,0.01-0.32,0.06-0.67,0
		c-0.06-0.01-0.26-0.05-0.48-0.16c-0.06-0.03-0.26-0.13-0.48-0.32c-0.04-0.03-0.07-0.07-0.09-0.09"/>
	<path class="st12" d="M56.36,32.02v83.15c0.04,0.05,0.94,1.25,2.39,1.09c1.12-0.12,1.73-0.96,1.83-1.09c0-27.72,0-55.44,0-83.15
		c-0.06-0.24-0.52-2.19,0.72-3.65c0.47-0.55,1.03-0.84,1.41-0.99c8.27,0,16.53,0,24.8,0c0.84-0.36,1.37-1.2,1.3-2.08
		c-0.06-0.78-0.56-1.46-1.3-1.77c-8.54,0-17.09,0-25.63,0c-0.58,0.12-2.69,0.62-4.22,2.61C55.69,28.67,56.27,31.59,56.36,32.02z"/>
	<path class="st12" d="M56.99,30.75c0.19,0.11,0.61,0.32,1.18,0.33c0.62,0.01,1.08-0.22,1.27-0.33"/>
	<path class="st12" d="M57.19,28.88c0.19,0.12,0.54,0.31,1.04,0.37c0.57,0.06,1.01-0.09,1.22-0.17"/>
	<path class="st12" d="M58.31,26.9c0.12,0.16,0.32,0.38,0.61,0.56c0.46,0.29,0.91,0.36,1.14,0.37"/>
	<path class="st12" d="M60.06,25.42c0.04,0.18,0.15,0.52,0.42,0.85c0.31,0.38,0.68,0.56,0.86,0.63"/>
	<path class="st12" d="M62.35,24.55c-0.07,0.18-0.14,0.46-0.14,0.8c0.01,0.5,0.19,0.86,0.29,1.05"/>
	<path class="st12" d="M87.43,23.6c-0.06,0.07-0.13,0.18-0.2,0.31c-0.08,0.13-0.28,0.5-0.37,1.03c-0.05,0.3-0.13,0.76,0.04,1.3
		c0.15,0.47,0.41,0.79,0.6,0.98"/>
	<path class="st13" d="M87.56,23.82L87.56,23.82c-0.11,0.17-0.25,0.44-0.36,0.78c-0.11,0.35-0.26,0.81-0.15,1.36
		c0.11,0.53,0.4,0.89,0.6,1.09c0.1-0.07,0.22-0.16,0.36-0.29c0.07-0.07,0.2-0.21,0.32-0.4c0.07-0.11,0.25-0.42,0.26-0.85
		c0.02-0.46-0.16-0.8-0.23-0.93c-0.22-0.4-0.53-0.61-0.68-0.71"/>
</g>
</svg>
